HIERARCHY
ROOT Hips
{
	OFFSET	0.00	0.00	0.00
	CHANNELS 6 Xposition Yposition Zposition Zrotation Xrotation Yrotation
	JOINT LeftUpLeg
	{
		OFFSET	 0.126116	-0.014019	-0.065224
		CHANNELS 3 Zrotation Xrotation Yrotation
		JOINT LeftLeg
		{
			OFFSET	 0.000000	 0.000000	 0.569914
			CHANNELS 3 Zrotation Xrotation Yrotation
			JOINT LeftFoot
			{
				OFFSET	 0.000000	 0.000000	 0.544423
				CHANNELS 3 Zrotation Xrotation Yrotation
				JOINT LeftToeBase
				{
					OFFSET	 0.000000	 0.000000	 0.207117
					CHANNELS 3 Zrotation Xrotation Yrotation
					End Site
					{
						OFFSET	 0.000000	 0.000000	 0.207117
					}
				}
			}
		}
	}
	JOINT RightUpLeg
	{
		OFFSET	-0.124023	-0.008373	-0.065224
		CHANNELS 3 Zrotation Xrotation Yrotation
		JOINT RightLeg
		{
			OFFSET	 0.000000	 0.000000	 0.570047
			CHANNELS 3 Zrotation Xrotation Yrotation
			JOINT RightFoot
			{
				OFFSET	 0.000000	 0.000000	 0.544354
				CHANNELS 3 Zrotation Xrotation Yrotation
				JOINT RightToeBase
				{
					OFFSET	 0.000000	 0.000000	 0.207540
					CHANNELS 3 Zrotation Xrotation Yrotation
					End Site
					{
						OFFSET	 0.000000	 0.000000	 0.207540
					}
				}
			}
		}
	}
	JOINT Spine
	{
		OFFSET	 0.000184	-0.007763	 0.117403
		CHANNELS 3 Zrotation Xrotation Yrotation
		JOINT Spine1
		{
			OFFSET	 0.000000	 0.000000	 0.137269
			CHANNELS 3 Zrotation Xrotation Yrotation
			JOINT Spine2
			{
				OFFSET	 0.000000	 0.000000	 0.156879
				CHANNELS 3 Zrotation Xrotation Yrotation
				JOINT LeftShoulder
				{
					OFFSET	 0.080501	-0.002496	 0.160144
					CHANNELS 3 Zrotation Xrotation Yrotation
					JOINT LeftArm
					{
						OFFSET	 0.000000	 0.000000	 0.164363
						CHANNELS 3 Zrotation Xrotation Yrotation
						JOINT LeftForeArm
						{
							OFFSET	 0.000000	 0.000000	 0.364576
							CHANNELS 3 Zrotation Xrotation Yrotation
							JOINT LeftHand
							{
								OFFSET	 0.000000	 0.000000	 0.360812
								CHANNELS 3 Zrotation Xrotation Yrotation
								JOINT LeftHandIndex1
								{
									OFFSET	 0.000000	 0.000000	 0.086006
									CHANNELS 3 Zrotation Xrotation Yrotation
									JOINT LeftHandIndex2
									{
										OFFSET	 0.000000	 0.000000	 0.047236
										CHANNELS 3 Zrotation Xrotation Yrotation
										JOINT LeftHandIndex3
										{
											OFFSET	-0.004284	-0.000551	 0.038166
											CHANNELS 3 Zrotation Xrotation Yrotation
											End Site
											{
												OFFSET	-0.004284	-0.000551	 0.038166
											}
										}
									}
								}
							}
						}
					}
				}
				JOINT Neck
				{
					OFFSET	 0.000000	 0.000000	 0.176489
					CHANNELS 3 Zrotation Xrotation Yrotation
					JOINT Head
					{
						OFFSET	 0.000000	-0.001747	 0.077940
						CHANNELS 3 Zrotation Xrotation Yrotation
						End Site
						{
							OFFSET	 0.000000	-0.001747	 0.077940
						}
					}
				}
				JOINT RightShoulder
				{
					OFFSET	-0.080363	 0.000306	 0.159706
					CHANNELS 3 Zrotation Xrotation Yrotation
					JOINT RightArm
					{
						OFFSET	 0.000000	 0.000000	 0.164196
						CHANNELS 3 Zrotation Xrotation Yrotation
						JOINT RightForeArm
						{
							OFFSET	 0.000000	 0.000000	 0.365611
							CHANNELS 3 Zrotation Xrotation Yrotation
							JOINT RightHand
							{
								OFFSET	 0.000000	 0.000000	 0.360648
								CHANNELS 3 Zrotation Xrotation Yrotation
								JOINT RightHandIndex1
								{
									OFFSET	 0.000000	 0.000000	 0.069977
									CHANNELS 3 Zrotation Xrotation Yrotation
									JOINT RightHandIndex2
									{
										OFFSET	 0.000000	 0.000000	 0.052305
										CHANNELS 3 Zrotation Xrotation Yrotation
										JOINT RightHandIndex3
										{
											OFFSET	 0.009002	-0.000782	 0.042196
											CHANNELS 3 Zrotation Xrotation Yrotation
											End Site
											{
												OFFSET	 0.009002	-0.000782	 0.042196
											}
										}
									}
								}
							}
						}
					}
				}
			}
		}
	}
}
MOTION
Frames:    11
Frame Time: 0.03333334
 0.012119	 0.059554	 1.201379	 5.547549	-0.902624	-3.401061	-5.895031	-13.849840	-170.378900	 1.173133	-38.755950	 0.513602	 44.939000	 79.996250	-49.017610	-2.368834	 31.709090	-0.072057	-0.656782	-30.193570	-175.137200	 12.080100	-52.546990	 10.254640	 51.913590	 81.923800	-49.821220	 2.358978	 32.999490	 0.103214	-1.355027	 8.445275	 1.108376	 0.654577	 2.037059	 2.094190	-5.174462	-2.551753	-2.399281	-94.064320	 58.973590	 175.118800	 24.714120	 43.310670	-25.933960	-1.802625	-1.919034	-19.041540	-0.152409	-17.373190	-8.247876	-4.866498	 19.336730	-2.797096	-3.872526	 21.587780	 2.193608	-4.804879	 5.585318	 0.144640	-0.048524	-5.098003	 0.217583	-7.045252	 2.039456	 2.209167	 89.732930	 61.727770	 179.882400	-19.713290	 53.145820	 8.664769	-1.828490	-3.078150	 15.201350	-4.985039	-2.132229	 0.399131	 6.281555	 23.924140	-0.546407	 1.998844	 43.767680	-7.093878	 0.719158	 23.423620	 3.471679
 0.011790	 0.047276	 1.200336	 6.284508	-0.026384	-3.621596	-6.524799	-14.240470	-170.262400	 1.495520	-38.732580	 0.715088	 44.713050	 80.044010	-49.043830	-2.366634	 32.067060	-0.080206	-2.197732	-32.357750	-174.734600	 13.371930	-51.116360	 11.087050	 106.957200	 80.585560	-106.926900	 2.360343	 32.796450	 0.098500	-1.735520	 7.787658	 1.065892	 0.718699	 1.741107	 2.400254	-5.331827	-2.571596	-2.512585	-94.288800	 58.989410	 174.637900	 25.132980	 42.327820	-25.863530	-2.453012	-1.897630	-21.153550	 0.200290	-18.095270	-8.435784	-4.853383	 19.647770	-2.812627	-3.856102	 21.796710	 2.176926	-4.798061	 5.665717	 0.139922	-0.012733	-5.153584	 0.287994	-7.079411	 1.992309	 2.116921	 89.613790	 61.896360	 179.595200	-18.944360	 53.739520	 7.283845	-2.866082	-3.436550	 15.475270	-5.510265	-1.502030	-0.278335	 6.252352	 22.059020	-0.592756	 2.189074	 42.123330	-7.261726	 1.131402	 21.558610	 3.273304
 0.011487	 0.017819	 1.198426	 6.636411	 0.744114	-4.170699	-6.828766	-13.258020	-169.812800	 1.716643	-38.076230	 0.841245	 45.146150	 80.115750	-49.680850	-2.358194	 33.346450	-0.109719	-0.734313	-34.937930	-173.283500	 13.116560	-47.318530	 10.291630	 133.272600	 70.590680	-134.976900	 2.351937	 33.996120	 0.126560	-2.009772	 6.923187	 1.365252	 0.812034	 2.360156	 2.618259	-5.433008	-2.873735	-2.606741	-94.478010	 58.960670	 174.239400	 24.349450	 40.493600	-26.089870	-3.566915	-1.701685	-24.216200	-0.070967	-18.816070	-7.588269	-4.824237	 20.247050	-2.822852	-3.823353	 22.209890	 2.143651	-4.769375	 6.002570	 0.120074	 0.025127	-5.284655	 0.344445	-7.097674	 1.892712	 2.030483	 89.438950	 62.052350	 179.169800	-17.488950	 54.604210	 4.859954	-4.885119	-4.097223	 15.728670	-6.479985	-0.861801	-2.219996	 6.193155	 18.910350	-0.715035	 2.551451	 38.692710	-7.576491	 1.804571	 18.390360	 2.974244
 0.009684	-0.024809	 1.195479	 7.035940	 0.759006	-4.368729	-7.517428	-10.596160	-169.729300	 2.145293	-37.077520	 1.080961	 39.337550	 79.143750	-44.101450	-2.323647	 37.551470	-0.211833	 0.552985	-36.017800	-172.035200	 12.563000	-40.424120	 8.728742	 122.017700	 70.427990	-124.836500	 2.336170	 35.978080	 0.174312	-2.782269	 6.999147	 1.457212	 0.864431	 2.843302	 2.758499	-5.439513	-3.290565	-2.703971	-94.538150	 58.997090	 174.105300	 21.904110	 38.787800	-26.848360	-3.680918	-1.774332	-25.807990	-0.735724	-20.381660	-8.182674	-4.854102	 20.529970	-3.079391	-3.783084	 22.711890	 2.102763	-4.712086	 6.670557	 0.080167	 0.127202	-5.421342	 0.330745	-6.934915	 1.929450	 1.685676	 89.357660	 61.876230	 178.979700	-15.654840	 55.215130	 1.442264	-6.564774	-4.642459	 15.846370	-6.793600	-1.401754	-4.069183	 6.169561	 15.673670	-0.616424	 2.908342	 34.882450	-7.878881	 2.457340	 15.179500	 2.715776
 0.004244	-0.081694	 1.189667	 7.445357	 0.379163	-3.490484	-8.288035	-6.666458	-170.919300	 2.023950	-36.354340	 0.990848	 25.971940	 75.049450	-30.155600	-2.180012	 47.902270	-0.512161	 1.843287	-35.276470	-171.938800	 7.662077	-30.242510	 4.263737	 64.009180	 76.553270	-63.208310	 2.340519	 35.459450	 0.161646	-3.858111	 7.016345	 0.647114	 0.962134	 4.225931	 2.793272	-5.477516	-3.803890	-2.902364	-94.463160	 59.346950	 174.207500	 19.047800	 36.990520	-29.275540	-3.916569	-1.644003	-25.592580	-1.726660	-21.748080	-8.802670	-4.891201	 20.699220	-3.348251	-3.755358	 23.053670	 2.074607	-4.633672	 7.574728	 0.024974	 0.248616	-5.476563	 0.246647	-6.656156	 2.104867	 1.771752	 89.354040	 61.455730	 178.986500	-14.025990	 55.397710	-1.882685	-7.958500	-5.019428	 15.682190	-7.467051	-2.459624	-5.377402	 6.258935	 12.282400	-0.030873	 3.115853	 32.445180	-8.050542	 3.074110	 12.030520	 2.502165
-0.003133	-0.143358	 1.178964	 9.044510	-0.758847	-2.202163	-8.203562	-1.610916	-173.039700	-0.059286	-36.056320	-0.242500	 13.561750	 62.449330	-14.464750	-1.761412	 61.311420	-1.118565	 4.223971	-35.655720	-171.225400	 6.718143	-24.806660	 3.151387	 8.758344	 63.087990	-4.770100	 2.337033	 35.876600	 0.171828	-5.493522	 7.396448	-0.522819	 0.777061	 6.458853	 2.635822	-5.709580	-4.446386	-3.148843	-94.354200	 59.095970	 174.481900	 17.055570	 34.825100	-31.407280	-4.304204	-1.547565	-26.953480	-1.736175	-20.563750	-8.502428	-4.877427	 21.021130	-3.375180	-3.719272	 23.493830	 2.037985	-4.549880	 8.527590	-0.034679	 0.385311	-5.387123	 0.280374	-6.479867	 2.581438	 2.158760	 89.158000	 61.286880	 178.531200	-12.734650	 55.359530	-4.108482	-8.136341	-5.078743	 15.694910	-7.663982	-3.687009	-4.422809	 6.351713	 9.413742	 0.424986	 3.340610	 29.602800	-8.232429	 3.507190	 9.759515	 2.370938
-0.012042	-0.203849	 1.165939	 10.304400	-1.393790	-0.888161	-4.841612	 3.184997	-176.602200	 1.500984	-35.427210	 0.665669	 5.547873	 43.080490	-2.778594	-1.181703	 69.513820	-1.807405	 3.079326	-38.952580	-172.109800	 6.991969	-24.493840	 3.229387	 3.850891	 49.016570	-0.134278	 2.358729	 33.035490	 0.104051	-6.496750	 7.486648	-1.277435	 0.340181	 8.169836	 1.715518	-5.962877	-4.911856	-3.001608	-94.172570	 59.624400	 174.791200	 16.156810	 33.695710	-33.442680	-3.471194	-2.105637	-28.487770	-0.939497	-19.226800	-9.160314	-4.794915	 21.341100	-2.989611	-3.652765	 24.291590	 1.970500	-4.493207	 9.164196	-0.075413	 0.375326	-5.353451	 0.207420	-6.503016	 3.028710	 2.221049	 89.007770	 60.559640	 178.222200	-11.848940	 54.715930	-6.525578	-6.760440	-5.107322	 17.129430	-6.462267	-5.133274	-2.663164	 6.384602	 8.741885	 0.563439	 3.388382	 28.969950	-8.270490	 3.663469	 8.929155	 2.327524
-0.022610	-0.293024	 1.152260	 8.724445	-2.129954	 0.561104	 5.279429	 11.147040	 176.923000	-0.197488	-29.884260	-0.274146	 7.210707	 27.137670	-0.336142	-2.374129	 30.798260	-0.051541	 3.060588	-38.977770	-175.147700	 5.103169	-22.125270	 2.214114	 3.885392	 41.788640	 1.639509	 2.374338	 30.483820	 0.045989	-5.813641	 8.005305	-2.195895	-0.243396	 8.226932	 1.081184	-5.776111	-4.728150	-3.032217	-94.036150	 59.730770	 175.071600	 14.893460	 33.280370	-33.829830	-2.085951	-2.961845	-29.310890	-0.336362	-18.958520	-8.640610	-4.728401	 21.955680	-2.782689	-3.570525	 25.254630	 1.887079	-4.415387	 10.028220	-0.131844	 0.257721	-5.406512	 0.170967	-6.639205	 3.131320	 2.408126	 89.118970	 60.271680	 178.491700	-11.812010	 54.320340	-8.067098	-5.303021	-4.568924	 16.943100	-4.743412	-7.406704	-0.825904	 6.406188	 10.410370	 0.642092	 3.265081	 30.582470	-8.171810	 3.533207	 9.621693	 2.363568
-0.030702	-0.384678	 1.143276	 6.743551	-2.926434	 1.242463	 9.519948	 17.638960	 173.410100	-2.762079	-26.709800	-1.401114	 10.121580	 33.310750	-4.437983	-2.381161	 29.455070	-0.021809	 3.780317	-35.978940	-178.580800	 4.573675	-22.482710	 2.043872	 3.398889	 44.777800	 3.936220	 2.374324	 30.486000	 0.046043	-5.241275	 8.637123	-2.500033	-1.214289	 6.686016	 0.287603	-5.373607	-3.829529	-2.552430	-93.944630	 59.474580	 175.306900	 14.416980	 33.651820	-31.722290	-1.197973	-3.634046	-30.480030	-0.738843	-19.611390	-7.873774	-4.632879	 23.249170	-2.599045	-3.495807	 26.107520	 1.811344	-4.299777	 11.289850	-0.216694	 0.129403	-5.305744	 0.067581	-6.730614	 3.024688	 2.310106	 89.403850	 60.248810	 179.140200	-12.880300	 54.235770	-7.848608	-3.724956	-3.721988	 15.615480	-3.230498	-9.815156	 0.059381	 6.383181	 13.150230	 0.520793	 3.025465	 33.528190	-7.976182	 3.174085	 11.510410	 2.470465
-0.041652	-0.508326	 1.140460	 5.127313	-3.630710	 1.236005	 4.953565	 18.612120	 175.174000	-2.057190	-35.250220	-1.391421	 10.051130	 51.181700	-6.654157	-2.378621	 29.959940	-0.032915	 4.369447	-36.534140	 178.869800	 3.544497	-33.677350	 2.388872	 4.641257	 54.842350	 4.842982	 2.374308	 30.488400	 0.046095	-4.170310	 9.204133	-2.233474	-2.000747	 4.253812	-0.412507	-5.035323	-2.470708	-1.833925	-93.773530	 59.741860	 175.642600	 15.302950	 35.568160	-29.148570	 1.077455	-4.861135	-29.785190	-0.855116	-18.102230	-6.170969	-4.585586	 24.082480	-2.568509	-3.413922	 27.019250	 1.728368	-4.167723	 12.699110	-0.315042	-0.044856	-5.117076	-0.047135	-6.890982	 2.873177	 2.076434	 89.566220	 59.781880	 179.516500	-15.204500	 53.973000	-5.607247	-1.108023	-2.571684	 13.662090	-1.664822	-13.088340	 0.736653	 6.374775	 16.398220	 0.437805	 2.782346	 36.280490	-7.773085	 2.640267	 14.256670	 2.649234
-0.052045	-0.618952	 1.146552	 3.718354	-3.761730	 1.258978	-0.733182	 12.825160	 178.655800	-0.270380	-50.577870	-0.481343	 6.065083	 71.990500	-3.902432	-2.368088	 31.830920	-0.074829	 4.338617	-35.832410	 177.086000	 2.385899	-42.584060	 2.128496	 6.338150	 64.510830	 4.775942	 2.373819	 30.577420	 0.048078	-2.288363	 9.310048	-2.358768	-2.063815	 2.014575	-0.160873	-4.828433	-1.434651	-1.730869	-93.636670	 60.119410	 175.894300	 17.139340	 38.288280	-27.157080	 3.962237	-5.592088	-25.983630	 0.145661	-16.346960	-4.096409	-4.548864	 24.980970	-2.642535	-3.361281	 27.592940	 1.675049	-4.112483	 13.278520	-0.356614	-0.233785	-4.889825	-0.115031	-7.108512	 2.534796	 2.342420	 89.700340	 59.827350	 179.816600	-17.885130	 54.179920	-1.895063	 1.200926	-1.758612	 12.095640	-0.993458	-13.580470	 1.504571	 6.380210	 18.560440	 0.431971	 2.577691	 38.428010	-7.598997	 2.232143	 16.302000	 2.801295
